%TF.GenerationSoftware,KiCad,Pcbnew,9.0.2*%
%TF.CreationDate,2025-06-02T17:23:56+01:00*%
%TF.ProjectId,TWUSDiySynthKit,54575553-4469-4795-9379-6e74684b6974,rev?*%
%TF.SameCoordinates,Original*%
%TF.FileFunction,Soldermask,Top*%
%TF.FilePolarity,Negative*%
%FSLAX46Y46*%
G04 Gerber Fmt 4.6, Leading zero omitted, Abs format (unit mm)*
G04 Created by KiCad (PCBNEW 9.0.2) date 2025-06-02 17:23:56*
%MOMM*%
%LPD*%
G01*
G04 APERTURE LIST*
G04 Aperture macros list*
%AMRoundRect*
0 Rectangle with rounded corners*
0 $1 Rounding radius*
0 $2 $3 $4 $5 $6 $7 $8 $9 X,Y pos of 4 corners*
0 Add a 4 corners polygon primitive as box body*
4,1,4,$2,$3,$4,$5,$6,$7,$8,$9,$2,$3,0*
0 Add four circle primitives for the rounded corners*
1,1,$1+$1,$2,$3*
1,1,$1+$1,$4,$5*
1,1,$1+$1,$6,$7*
1,1,$1+$1,$8,$9*
0 Add four rect primitives between the rounded corners*
20,1,$1+$1,$2,$3,$4,$5,0*
20,1,$1+$1,$4,$5,$6,$7,0*
20,1,$1+$1,$6,$7,$8,$9,0*
20,1,$1+$1,$8,$9,$2,$3,0*%
%AMFreePoly0*
4,1,37,0.000000,0.796148,0.078414,0.796148,0.232228,0.765552,0.377117,0.705537,0.507515,0.618408,0.618408,0.507515,0.705537,0.377117,0.765552,0.232228,0.796148,0.078414,0.796148,-0.078414,0.765552,-0.232228,0.705537,-0.377117,0.618408,-0.507515,0.507515,-0.618408,0.377117,-0.705537,0.232228,-0.765552,0.078414,-0.796148,0.000000,-0.796148,0.000000,-0.800000,-2.200000,-0.800000,
-2.203843,-0.796157,-2.239018,-0.796157,-2.311114,-0.766294,-2.366294,-0.711114,-2.396157,-0.639018,-2.396157,-0.603843,-2.400000,-0.600000,-2.400000,0.600000,-2.396157,0.603843,-2.396157,0.639018,-2.366294,0.711114,-2.311114,0.766294,-2.239018,0.796157,-2.203843,0.796157,-2.200000,0.800000,0.000000,0.800000,0.000000,0.796148,0.000000,0.796148,$1*%
%AMFreePoly1*
4,1,37,0.603843,0.796157,0.639018,0.796157,0.711114,0.766294,0.766294,0.711114,0.796157,0.639018,0.796157,0.603843,0.800000,0.600000,0.800000,-0.600000,0.796157,-0.603843,0.796157,-0.639018,0.766294,-0.711114,0.711114,-0.766294,0.639018,-0.796157,0.603843,-0.796157,0.600000,-0.800000,-1.600000,-0.800000,-1.600000,-0.796148,-1.678414,-0.796148,-1.832228,-0.765552,-1.977117,-0.705537,
-2.107515,-0.618408,-2.218408,-0.507515,-2.305537,-0.377117,-2.365552,-0.232228,-2.396148,-0.078414,-2.396148,0.078414,-2.365552,0.232228,-2.305537,0.377117,-2.218408,0.507515,-2.107515,0.618408,-1.977117,0.705537,-1.832228,0.765552,-1.678414,0.796148,-1.600000,0.796148,-1.600000,0.800000,0.600000,0.800000,0.603843,0.796157,0.603843,0.796157,$1*%
%AMFreePoly2*
4,1,37,1.600000,0.796148,1.678414,0.796148,1.832228,0.765552,1.977117,0.705537,2.107515,0.618408,2.218408,0.507515,2.305537,0.377117,2.365552,0.232228,2.396148,0.078414,2.396148,-0.078414,2.365552,-0.232228,2.305537,-0.377117,2.218408,-0.507515,2.107515,-0.618408,1.977117,-0.705537,1.832228,-0.765552,1.678414,-0.796148,1.600000,-0.796148,1.600000,-0.800000,-0.600000,-0.800000,
-0.603843,-0.796157,-0.639018,-0.796157,-0.711114,-0.766294,-0.766294,-0.711114,-0.796157,-0.639018,-0.796157,-0.603843,-0.800000,-0.600000,-0.800000,0.600000,-0.796157,0.603843,-0.796157,0.639018,-0.766294,0.711114,-0.711114,0.766294,-0.639018,0.796157,-0.603843,0.796157,-0.600000,0.800000,1.600000,0.800000,1.600000,0.796148,1.600000,0.796148,$1*%
%AMFreePoly3*
4,1,37,0.603843,0.796157,0.639018,0.796157,0.711114,0.766294,0.766294,0.711114,0.796157,0.639018,0.796157,0.603843,0.800000,0.600000,0.800000,-0.600000,0.796157,-0.603843,0.796157,-0.639018,0.766294,-0.711114,0.711114,-0.766294,0.639018,-0.796157,0.603843,-0.796157,0.600000,-0.800000,0.000000,-0.800000,0.000000,-0.796148,-0.078414,-0.796148,-0.232228,-0.765552,-0.377117,-0.705537,
-0.507515,-0.618408,-0.618408,-0.507515,-0.705537,-0.377117,-0.765552,-0.232228,-0.796148,-0.078414,-0.796148,0.078414,-0.765552,0.232228,-0.705537,0.377117,-0.618408,0.507515,-0.507515,0.618408,-0.377117,0.705537,-0.232228,0.765552,-0.078414,0.796148,0.000000,0.796148,0.000000,0.800000,0.600000,0.800000,0.603843,0.796157,0.603843,0.796157,$1*%
%AMFreePoly4*
4,1,37,0.000000,0.796148,0.078414,0.796148,0.232228,0.765552,0.377117,0.705537,0.507515,0.618408,0.618408,0.507515,0.705537,0.377117,0.765552,0.232228,0.796148,0.078414,0.796148,-0.078414,0.765552,-0.232228,0.705537,-0.377117,0.618408,-0.507515,0.507515,-0.618408,0.377117,-0.705537,0.232228,-0.765552,0.078414,-0.796148,0.000000,-0.796148,0.000000,-0.800000,-0.600000,-0.800000,
-0.603843,-0.796157,-0.639018,-0.796157,-0.711114,-0.766294,-0.766294,-0.711114,-0.796157,-0.639018,-0.796157,-0.603843,-0.800000,-0.600000,-0.800000,0.600000,-0.796157,0.603843,-0.796157,0.639018,-0.766294,0.711114,-0.711114,0.766294,-0.639018,0.796157,-0.603843,0.796157,-0.600000,0.800000,0.000000,0.800000,0.000000,0.796148,0.000000,0.796148,$1*%
G04 Aperture macros list end*
%ADD10C,4.700000*%
%ADD11R,1.700000X1.700000*%
%ADD12C,1.700000*%
%ADD13RoundRect,0.250000X-0.650000X0.412500X-0.650000X-0.412500X0.650000X-0.412500X0.650000X0.412500X0*%
%ADD14RoundRect,0.250000X0.650000X-0.412500X0.650000X0.412500X-0.650000X0.412500X-0.650000X-0.412500X0*%
%ADD15RoundRect,0.250000X-0.600000X-0.725000X0.600000X-0.725000X0.600000X0.725000X-0.600000X0.725000X0*%
%ADD16O,1.700000X1.950000*%
%ADD17C,2.200000*%
%ADD18RoundRect,0.250000X-0.600000X-0.750000X0.600000X-0.750000X0.600000X0.750000X-0.600000X0.750000X0*%
%ADD19O,1.700000X2.000000*%
%ADD20RoundRect,0.237500X-0.287500X-0.237500X0.287500X-0.237500X0.287500X0.237500X-0.287500X0.237500X0*%
%ADD21RoundRect,0.237500X-0.237500X0.250000X-0.237500X-0.250000X0.237500X-0.250000X0.237500X0.250000X0*%
%ADD22RoundRect,0.150000X-0.625000X0.150000X-0.625000X-0.150000X0.625000X-0.150000X0.625000X0.150000X0*%
%ADD23RoundRect,0.250000X-0.650000X0.350000X-0.650000X-0.350000X0.650000X-0.350000X0.650000X0.350000X0*%
%ADD24RoundRect,0.250000X-0.950000X-0.550000X0.950000X-0.550000X0.950000X0.550000X-0.950000X0.550000X0*%
%ADD25O,2.400000X1.600000*%
%ADD26RoundRect,0.250000X-0.625000X0.350000X-0.625000X-0.350000X0.625000X-0.350000X0.625000X0.350000X0*%
%ADD27O,1.750000X1.200000*%
%ADD28RoundRect,0.237500X0.237500X-0.287500X0.237500X0.287500X-0.237500X0.287500X-0.237500X-0.287500X0*%
%ADD29R,1.600000X1.600000*%
%ADD30C,1.600000*%
%ADD31RoundRect,0.250000X0.725000X-0.600000X0.725000X0.600000X-0.725000X0.600000X-0.725000X-0.600000X0*%
%ADD32O,1.950000X1.700000*%
%ADD33RoundRect,0.237500X0.250000X0.237500X-0.250000X0.237500X-0.250000X-0.237500X0.250000X-0.237500X0*%
%ADD34O,1.100000X1.800000*%
%ADD35O,1.050000X1.450000*%
%ADD36FreePoly0,0.000000*%
%ADD37RoundRect,0.800000X-0.800000X-0.000010X0.800000X-0.000010X0.800000X0.000010X-0.800000X0.000010X0*%
%ADD38FreePoly1,0.000000*%
%ADD39FreePoly2,0.000000*%
%ADD40RoundRect,0.200000X-0.587400X-0.587400X0.587400X-0.587400X0.587400X0.587400X-0.587400X0.587400X0*%
%ADD41C,1.574800*%
%ADD42RoundRect,0.300000X-0.450000X-0.450000X0.450000X-0.450000X0.450000X0.450000X-0.450000X0.450000X0*%
%ADD43C,3.800000*%
%ADD44C,1.850000*%
%ADD45RoundRect,0.200000X-0.600000X-0.600000X0.600000X-0.600000X0.600000X0.600000X-0.600000X0.600000X0*%
%ADD46FreePoly3,0.000000*%
%ADD47FreePoly4,0.000000*%
G04 APERTURE END LIST*
D10*
%TO.C,H9*%
X60600000Y-81600000D03*
%TD*%
D11*
%TO.C,J12*%
X69800000Y-49460000D03*
D12*
X69800000Y-52000000D03*
X69800000Y-54540000D03*
%TD*%
D13*
%TO.C,C5*%
X175800000Y-24337500D03*
X175800000Y-27462500D03*
%TD*%
D14*
%TO.C,C11*%
X77900000Y-31562500D03*
X77900000Y-28437500D03*
%TD*%
D15*
%TO.C,R3*%
X204600000Y-59900000D03*
D16*
X207100000Y-59900000D03*
X209600000Y-59900000D03*
%TD*%
D17*
%TO.C,H3*%
X155107034Y-22396492D03*
%TD*%
D10*
%TO.C,H8*%
X118100000Y-23100000D03*
%TD*%
D18*
%TO.C,J2*%
X221700000Y-59700000D03*
D19*
X224200000Y-59700000D03*
%TD*%
D15*
%TO.C,R1*%
X241400000Y-59750000D03*
D16*
X243900000Y-59750000D03*
X246400000Y-59750000D03*
%TD*%
D14*
%TO.C,C13*%
X77200000Y-51962500D03*
X77200000Y-48837500D03*
%TD*%
D10*
%TO.C,H11*%
X60600000Y-23600000D03*
%TD*%
D13*
%TO.C,C3*%
X179600000Y-49137500D03*
X179600000Y-52262500D03*
%TD*%
D10*
%TO.C,H12*%
X109600000Y-23600000D03*
%TD*%
D17*
%TO.C,H4*%
X166500000Y-22400000D03*
%TD*%
D11*
%TO.C,J3*%
X222000000Y-27650000D03*
D12*
X222000000Y-30190000D03*
X222000000Y-32730000D03*
X222000000Y-35270000D03*
X222000000Y-37810000D03*
X222000000Y-40350000D03*
X222000000Y-42890000D03*
%TD*%
D10*
%TO.C,H10*%
X109600000Y-81600000D03*
%TD*%
%TO.C,H5*%
X252300000Y-23100000D03*
%TD*%
D14*
%TO.C,C10*%
X246400000Y-54062500D03*
X246400000Y-50937500D03*
%TD*%
%TO.C,C14*%
X72700000Y-61825000D03*
X72700000Y-58700000D03*
%TD*%
D10*
%TO.C,H7*%
X118100000Y-69300000D03*
%TD*%
D20*
%TO.C,R13*%
X78825000Y-67200000D03*
X80575000Y-67200000D03*
%TD*%
D21*
%TO.C,R8*%
X75800000Y-29787500D03*
X75800000Y-31612500D03*
%TD*%
D11*
%TO.C,J1*%
X214300000Y-48675000D03*
D12*
X214300000Y-51215000D03*
X216840000Y-48675000D03*
X216840000Y-51215000D03*
%TD*%
D22*
%TO.C,J8*%
X64300000Y-41400000D03*
X64300000Y-42400000D03*
X64300000Y-43400000D03*
X64300000Y-44400000D03*
D23*
X60425000Y-40100000D03*
X60425000Y-45700000D03*
%TD*%
D13*
%TO.C,C6*%
X175800000Y-34737500D03*
X175800000Y-37862500D03*
%TD*%
D24*
%TO.C,U1*%
X191800000Y-36960000D03*
D25*
X191800000Y-39500000D03*
X191800000Y-42040000D03*
X191800000Y-44580000D03*
X191800000Y-47120000D03*
X191800000Y-49660000D03*
X191800000Y-52200000D03*
X199420000Y-52200000D03*
X199420000Y-49660000D03*
X199420000Y-47120000D03*
X199420000Y-44580000D03*
X199420000Y-42040000D03*
X199420000Y-39500000D03*
X199420000Y-36960000D03*
%TD*%
D21*
%TO.C,R9*%
X69800000Y-32100000D03*
X69800000Y-33925000D03*
%TD*%
D13*
%TO.C,C8*%
X182200000Y-39537500D03*
X182200000Y-42662500D03*
%TD*%
D26*
%TO.C,J9*%
X65800000Y-50000000D03*
D27*
X65800000Y-52000000D03*
X65800000Y-54000000D03*
%TD*%
D14*
%TO.C,C4*%
X175800000Y-32662500D03*
X175800000Y-29537500D03*
%TD*%
D28*
%TO.C,R4*%
X189200000Y-37375000D03*
X189200000Y-35625000D03*
%TD*%
D29*
%TO.C,C7*%
X207617621Y-49500000D03*
D30*
X210117621Y-49500000D03*
%TD*%
D15*
%TO.C,R6*%
X193400000Y-59900000D03*
D16*
X195900000Y-59900000D03*
X198400000Y-59900000D03*
%TD*%
D13*
%TO.C,C2*%
X204400000Y-39500000D03*
X204400000Y-42625000D03*
%TD*%
D31*
%TO.C,J6*%
X86650000Y-77250000D03*
D32*
X86650000Y-74750000D03*
X86650000Y-72250000D03*
X86650000Y-69750000D03*
%TD*%
D33*
%TO.C,R5*%
X187112500Y-62100000D03*
X185287500Y-62100000D03*
%TD*%
D15*
%TO.C,R2*%
X230300000Y-59750000D03*
D16*
X232800000Y-59750000D03*
X235300000Y-59750000D03*
%TD*%
D11*
%TO.C,J14*%
X72900000Y-29320000D03*
D12*
X72900000Y-31860000D03*
X72900000Y-34400000D03*
X72900000Y-36940000D03*
%TD*%
D34*
%TO.C,A1*%
X158075000Y-21900000D03*
D35*
X158375000Y-24930000D03*
X163225000Y-24930000D03*
D34*
X163525000Y-21900000D03*
D36*
X151910000Y-21770000D03*
D37*
X151110000Y-24310000D03*
D38*
X151910000Y-26850000D03*
D37*
X151110000Y-29390000D03*
X151110000Y-31930000D03*
X151110000Y-34470000D03*
X151110000Y-37010000D03*
D38*
X151910000Y-39550000D03*
D37*
X151110000Y-42090000D03*
X151110000Y-44630000D03*
X151110000Y-47170000D03*
X151110000Y-49710000D03*
D38*
X151910000Y-52250000D03*
D37*
X151110000Y-54790000D03*
X151110000Y-57330000D03*
X151110000Y-59870000D03*
X151110000Y-62410000D03*
D38*
X151910000Y-64950000D03*
D37*
X151110000Y-67490000D03*
X151110000Y-70030000D03*
X170490000Y-70030000D03*
X170490000Y-67490000D03*
D39*
X169690000Y-64950000D03*
D37*
X170490000Y-62410000D03*
X170490000Y-59870000D03*
X170490000Y-57330000D03*
X170490000Y-54790000D03*
D39*
X169690000Y-52250000D03*
D37*
X170490000Y-49710000D03*
X170490000Y-47170000D03*
X170490000Y-44630000D03*
X170490000Y-42090000D03*
D39*
X169690000Y-39550000D03*
D37*
X170490000Y-37010000D03*
X170490000Y-34470000D03*
X170490000Y-31930000D03*
X170490000Y-29390000D03*
D39*
X169690000Y-26850000D03*
D37*
X170490000Y-24310000D03*
X170490000Y-21770000D03*
D40*
X161384100Y-51600000D03*
D41*
X163924100Y-51600000D03*
X166464100Y-51600000D03*
D42*
X160800000Y-24900000D03*
X161800000Y-21600000D03*
X159800000Y-21600000D03*
X158300000Y-29900000D03*
X158300000Y-32400000D03*
X158300000Y-34900000D03*
%TD*%
D17*
%TO.C,H1*%
X155100000Y-69387787D03*
%TD*%
D26*
%TO.C,J10*%
X65800000Y-59800000D03*
D27*
X65800000Y-61800000D03*
X65800000Y-63800000D03*
%TD*%
D11*
%TO.C,J4*%
X225800000Y-42950000D03*
D12*
X225800000Y-40410000D03*
X225800000Y-37870000D03*
X225800000Y-35330000D03*
X225800000Y-32790000D03*
X225800000Y-30250000D03*
X225800000Y-27710000D03*
%TD*%
D20*
%TO.C,R7*%
X185400000Y-57900000D03*
X187150000Y-57900000D03*
%TD*%
D11*
%TO.C,J11*%
X69800000Y-59275000D03*
D12*
X69800000Y-61815000D03*
X69800000Y-64355000D03*
%TD*%
D20*
%TO.C,R12*%
X78900000Y-70200000D03*
X80650000Y-70200000D03*
%TD*%
D13*
%TO.C,C9*%
X208000000Y-36937500D03*
X208000000Y-40062500D03*
%TD*%
D17*
%TO.C,H2*%
X166500000Y-69400000D03*
%TD*%
D11*
%TO.C,J5*%
X108360000Y-28400000D03*
D12*
X110900000Y-28400000D03*
X108360000Y-30940000D03*
X110900000Y-30940000D03*
X108360000Y-33480000D03*
X110900000Y-33480000D03*
X108360000Y-36020000D03*
X110900000Y-36020000D03*
X108360000Y-38560000D03*
X110900000Y-38560000D03*
X108360000Y-41100000D03*
X110900000Y-41100000D03*
X108360000Y-43640000D03*
X110900000Y-43640000D03*
X108360000Y-46180000D03*
X110900000Y-46180000D03*
X108360000Y-48720000D03*
X110900000Y-48720000D03*
X108360000Y-51260000D03*
X110900000Y-51260000D03*
X108360000Y-53800000D03*
X110900000Y-53800000D03*
X108360000Y-56340000D03*
X110900000Y-56340000D03*
X108360000Y-58880000D03*
X110900000Y-58880000D03*
X108360000Y-61420000D03*
X110900000Y-61420000D03*
X108360000Y-63960000D03*
X110900000Y-63960000D03*
X108360000Y-66500000D03*
X110900000Y-66500000D03*
X108360000Y-69040000D03*
X110900000Y-69040000D03*
X108360000Y-71580000D03*
X110900000Y-71580000D03*
X108360000Y-74120000D03*
X110900000Y-74120000D03*
X108360000Y-76660000D03*
X110900000Y-76660000D03*
%TD*%
D13*
%TO.C,C12*%
X72400000Y-42437500D03*
X72400000Y-45562500D03*
%TD*%
D14*
%TO.C,C1*%
X235300000Y-54100000D03*
X235300000Y-50975000D03*
%TD*%
D10*
%TO.C,H6*%
X252300000Y-69300000D03*
%TD*%
D26*
%TO.C,J7*%
X65850000Y-29800000D03*
D27*
X65850000Y-31800000D03*
X65850000Y-33800000D03*
X65850000Y-35800000D03*
%TD*%
D43*
%TO.C,A2*%
X127000000Y-22400000D03*
X127000000Y-69400000D03*
D17*
X129975000Y-21900000D03*
D44*
X130275000Y-24930000D03*
X135125000Y-24930000D03*
D17*
X135425000Y-21900000D03*
D43*
X138400000Y-22400000D03*
X138400000Y-69400000D03*
D45*
X123810000Y-21770000D03*
D36*
X123810000Y-21770000D03*
D30*
X123810000Y-24310000D03*
D37*
X123010000Y-24310000D03*
D38*
X123810000Y-26850000D03*
D46*
X123810000Y-26850000D03*
D30*
X123810000Y-29390000D03*
D37*
X123010000Y-29390000D03*
D30*
X123810000Y-31930000D03*
D37*
X123010000Y-31930000D03*
D30*
X123810000Y-34470000D03*
D37*
X123010000Y-34470000D03*
D30*
X123810000Y-37010000D03*
D37*
X123010000Y-37010000D03*
D38*
X123810000Y-39550000D03*
D46*
X123810000Y-39550000D03*
D30*
X123810000Y-42090000D03*
D37*
X123010000Y-42090000D03*
D30*
X123810000Y-44630000D03*
D37*
X123010000Y-44630000D03*
D30*
X123810000Y-47170000D03*
D37*
X123010000Y-47170000D03*
D30*
X123810000Y-49710000D03*
D37*
X123010000Y-49710000D03*
D38*
X123810000Y-52250000D03*
D46*
X123810000Y-52250000D03*
D30*
X123810000Y-54790000D03*
D37*
X123010000Y-54790000D03*
D30*
X123810000Y-57330000D03*
D37*
X123010000Y-57330000D03*
D30*
X123810000Y-59870000D03*
D37*
X123010000Y-59870000D03*
D30*
X123810000Y-62410000D03*
D37*
X123010000Y-62410000D03*
D38*
X123810000Y-64950000D03*
D46*
X123810000Y-64950000D03*
D30*
X123810000Y-67490000D03*
D37*
X123010000Y-67490000D03*
D30*
X123810000Y-70030000D03*
D37*
X123010000Y-70030000D03*
D30*
X141590000Y-70030000D03*
D37*
X142390000Y-70030000D03*
D30*
X141590000Y-67490000D03*
D37*
X142390000Y-67490000D03*
D39*
X141590000Y-64950000D03*
D47*
X141590000Y-64950000D03*
D30*
X141590000Y-62410000D03*
D37*
X142390000Y-62410000D03*
D30*
X141590000Y-59870000D03*
D37*
X142390000Y-59870000D03*
D30*
X141590000Y-57330000D03*
D37*
X142390000Y-57330000D03*
D30*
X141590000Y-54790000D03*
D37*
X142390000Y-54790000D03*
D39*
X141590000Y-52250000D03*
D47*
X141590000Y-52250000D03*
D30*
X141590000Y-49710000D03*
D37*
X142390000Y-49710000D03*
D30*
X141590000Y-47170000D03*
D37*
X142390000Y-47170000D03*
D30*
X141590000Y-44630000D03*
D37*
X142390000Y-44630000D03*
D30*
X141590000Y-42090000D03*
D37*
X142390000Y-42090000D03*
D39*
X141590000Y-39550000D03*
D47*
X141590000Y-39550000D03*
D30*
X141590000Y-37010000D03*
D37*
X142390000Y-37010000D03*
D30*
X141590000Y-34470000D03*
D37*
X142390000Y-34470000D03*
D30*
X141590000Y-31930000D03*
D37*
X142390000Y-31930000D03*
D30*
X141590000Y-29390000D03*
D37*
X142390000Y-29390000D03*
D39*
X141590000Y-26850000D03*
D47*
X141590000Y-26850000D03*
D30*
X141590000Y-24310000D03*
D37*
X142390000Y-24310000D03*
D30*
X141590000Y-21770000D03*
D37*
X142390000Y-21770000D03*
%TD*%
M02*
